# xmcd
#
# Track frame offsets:
#	150
#	15745
#	29012
#	45780
#	65435
#	87770
#	105300
#	125717
#	146405
#	165232
#
# Disc length: 2473
#
# Revision: 5
# Processed by: cddbd v1.5.1PL0 Copyright (c) Steve Scherf et al.
# Submitted via: OrangeCD 5.2
# Normalized: r4:DSETVAR1
#
DISCID=7409a70a
DTITLE=Various Artist - Country Christmas 2001
DYEAR=2001
DGENRE=Country
TTITLE0=LeAnn Rimes - Put A Little Holiday In Your Heart
TTITLE1=Alan Jackson - Rudolph The Red Nosed Reindeer
TTITLE2=Dolly Parton - Winter wonderland and Sligh Ride
TTITLE3=Kenny Chesney - Santa Claus Is Back In Town
TTITLE4=Brad Paisley - 364 Days To Go
TTITLE5=Lonestar - This Christmas Time
TTITLE6=Sara Evans - Go Tell It On The Mountain
TTITLE7=Alison Krauss and Gary Chapman - Part Of Heaven
TTITLE8=Diamond Rio - What Child Is This
TTITLE9=Steve Wariner - Silent Night
EXTD=YEAR: 2001 ID3G: 2
EXTT0=
EXTT1=
EXTT2=
EXTT3=
EXTT4=
EXTT5=
EXTT6=
EXTT7=
EXTT8=
EXTT9=
PLAYORDER=
